<svg preserveAspectRatio="none" width="100%" height="100%" overflow="visible" style="display: block;" viewBox="0 0 1444 1433" fill="none" xmlns="http://www.w3.org/2000/svg">
<g id="lineGrid" opacity="0.27" clip-path="url(#clip0_0_41)">
<path id="Vector" d="M-18.682 34.2763H1466.14" stroke="var(--stroke-0, #231F20)" stroke-miterlimit="10"/>
<path id="Vector_2" d="M41.4948 -19.3712V1444.05" stroke="var(--stroke-0, #231F20)" stroke-miterlimit="10"/>
<path id="Vector_3" d="M88.7207 -19.3712V1444.05" stroke="var(--stroke-0, #231F20)" stroke-miterlimit="10"/>
<path id="Vector_4" d="M796.979 -19.3712V1444.05" stroke="var(--stroke-0, #231F20)" stroke-miterlimit="10"/>
<path id="Vector_5" d="M655.32 -19.3712V1444.05" stroke="var(--stroke-0, #231F20)" stroke-miterlimit="10"/>
<path id="Vector_6" d="M513.679 -19.3712V1444.05" stroke="var(--stroke-0, #231F20)" stroke-miterlimit="10"/>
<path id="Vector_7" d="M372.02 -19.3712V1444.05" stroke="var(--stroke-0, #231F20)" stroke-miterlimit="10"/>
<path id="Vector_8" d="M230.361 -19.3712V1444.05" stroke="var(--stroke-0, #231F20)" stroke-miterlimit="10"/>
<path id="Vector_9" d="M183.154 -19.3712V1444.05" stroke="var(--stroke-0, #231F20)" stroke-miterlimit="10"/>
<path id="Vector_10" d="M135.928 -19.3712V1444.05" stroke="var(--stroke-0, #231F20)" stroke-miterlimit="10"/>
<path id="Vector_11" d="M938.638 -19.3712V1444.05" stroke="var(--stroke-0, #231F20)" stroke-miterlimit="10"/>
<path id="Vector_12" d="M-18.682 86.8631H1466.14" stroke="var(--stroke-0, #231F20)" stroke-miterlimit="10"/>
<path id="Vector_13" d="M-18.682 139.45H1466.14" stroke="var(--stroke-0, #231F20)" stroke-miterlimit="10"/>
<path id="Vector_14" d="M-18.682 192.037H1466.14" stroke="var(--stroke-0, #231F20)" stroke-miterlimit="10"/>
<path id="Vector_15" d="M-18.682 244.624H1466.14" stroke="var(--stroke-0, #231F20)" stroke-miterlimit="10"/>
<path id="Vector_16" d="M-18.682 402.384H1466.14" stroke="var(--stroke-0, #231F20)" stroke-miterlimit="10"/>
<path id="Vector_17" d="M-18.682 560.144H1466.14" stroke="var(--stroke-0, #231F20)" stroke-miterlimit="10"/>
<path id="Vector_18" d="M-18.682 717.905H1466.14" stroke="var(--stroke-0, #231F20)" stroke-miterlimit="10"/>
<path id="Vector_19" d="M-18.682 875.665H1466.14" stroke="var(--stroke-0, #231F20)" stroke-miterlimit="10"/>
<path id="Vector_20" d="M-18.682 297.21H1466.14" stroke="var(--stroke-0, #231F20)" stroke-miterlimit="10"/>
<path id="Vector_21" d="M-18.682 454.971H1466.14" stroke="var(--stroke-0, #231F20)" stroke-miterlimit="10"/>
<path id="Vector_22" d="M-18.682 612.731H1466.14" stroke="var(--stroke-0, #231F20)" stroke-miterlimit="10"/>
<path id="Vector_23" d="M-18.682 770.492H1466.14" stroke="var(--stroke-0, #231F20)" stroke-miterlimit="10"/>
<path id="Vector_24" d="M-18.682 928.252H1466.14" stroke="var(--stroke-0, #231F20)" stroke-miterlimit="10"/>
<path id="Vector_25" d="M-18.682 1033.43H1466.14" stroke="var(--stroke-0, #231F20)" stroke-miterlimit="10"/>
<path id="Vector_26" d="M-18.682 1138.6H1466.14" stroke="var(--stroke-0, #231F20)" stroke-miterlimit="10"/>
<path id="Vector_27" d="M-18.682 1243.77H1466.14" stroke="var(--stroke-0, #231F20)" stroke-miterlimit="10"/>
<path id="Vector_28" d="M-18.682 1348.95H1466.14" stroke="var(--stroke-0, #231F20)" stroke-miterlimit="10"/>
<path id="Vector_29" d="M-18.682 349.797H1466.14" stroke="var(--stroke-0, #231F20)" stroke-miterlimit="10"/>
<path id="Vector_30" d="M-18.682 507.558H1466.14" stroke="var(--stroke-0, #231F20)" stroke-miterlimit="10"/>
<path id="Vector_31" d="M-18.682 665.318H1466.14" stroke="var(--stroke-0, #231F20)" stroke-miterlimit="10"/>
<path id="Vector_32" d="M-18.682 823.079H1466.14" stroke="var(--stroke-0, #231F20)" stroke-miterlimit="10"/>
<path id="Vector_33" d="M-18.682 980.839H1466.14" stroke="var(--stroke-0, #231F20)" stroke-miterlimit="10"/>
<path id="Vector_34" d="M-18.682 1086.01H1466.14" stroke="var(--stroke-0, #231F20)" stroke-miterlimit="10"/>
<path id="Vector_35" d="M-18.682 1191.19H1466.14" stroke="var(--stroke-0, #231F20)" stroke-miterlimit="10"/>
<path id="Vector_36" d="M-18.682 1296.36H1466.14" stroke="var(--stroke-0, #231F20)" stroke-miterlimit="10"/>
<path id="Vector_37" d="M-18.682 1401.53H1466.14" stroke="var(--stroke-0, #231F20)" stroke-miterlimit="10"/>
<path id="Vector_38" d="M324.794 -19.3712V1444.05" stroke="var(--stroke-0, #231F20)" stroke-miterlimit="10"/>
<path id="Vector_39" d="M466.453 -19.3712V1444.05" stroke="var(--stroke-0, #231F20)" stroke-miterlimit="10"/>
<path id="Vector_40" d="M1316.37 -19.3712V1444.05" stroke="var(--stroke-0, #231F20)" stroke-miterlimit="10"/>
<path id="Vector_41" d="M1221.94 -19.3712V1444.05" stroke="var(--stroke-0, #231F20)" stroke-miterlimit="10"/>
<path id="Vector_42" d="M1127.5 -19.3712V1444.05" stroke="var(--stroke-0, #231F20)" stroke-miterlimit="10"/>
<path id="Vector_43" d="M1033.07 -19.3712V1444.05" stroke="var(--stroke-0, #231F20)" stroke-miterlimit="10"/>
<path id="Vector_44" d="M891.412 -19.3712V1444.05" stroke="var(--stroke-0, #231F20)" stroke-miterlimit="10"/>
<path id="Vector_45" d="M749.753 -19.3712V1444.05" stroke="var(--stroke-0, #231F20)" stroke-miterlimit="10"/>
<path id="Vector_46" d="M608.113 -19.3712V1444.05" stroke="var(--stroke-0, #231F20)" stroke-miterlimit="10"/>
<path id="Vector_47" d="M1363.6 -19.3712V1444.05" stroke="var(--stroke-0, #231F20)" stroke-miterlimit="10"/>
<path id="Vector_48" d="M277.587 -19.3712V1444.05" stroke="var(--stroke-0, #231F20)" stroke-miterlimit="10"/>
<path id="Vector_49" d="M419.246 -19.3712V1444.05" stroke="var(--stroke-0, #231F20)" stroke-miterlimit="10"/>
<path id="Vector_50" d="M1269.16 -19.3712V1444.05" stroke="var(--stroke-0, #231F20)" stroke-miterlimit="10"/>
<path id="Vector_51" d="M1174.73 -19.3712V1444.05" stroke="var(--stroke-0, #231F20)" stroke-miterlimit="10"/>
<path id="Vector_52" d="M1080.28 -19.3712V1444.05" stroke="var(--stroke-0, #231F20)" stroke-miterlimit="10"/>
<path id="Vector_53" d="M985.845 -19.3712V1444.05" stroke="var(--stroke-0, #231F20)" stroke-miterlimit="10"/>
<path id="Vector_54" d="M844.205 -19.3712V1444.05" stroke="var(--stroke-0, #231F20)" stroke-miterlimit="10"/>
<path id="Vector_55" d="M702.546 -19.3712V1444.05" stroke="var(--stroke-0, #231F20)" stroke-miterlimit="10"/>
<path id="Vector_56" d="M560.887 -19.3712V1444.05" stroke="var(--stroke-0, #231F20)" stroke-miterlimit="10"/>
<path id="Vector_57" d="M1410.8 -19.3712V1444.05" stroke="var(--stroke-0, #231F20)" stroke-miterlimit="10"/>
</g>
<defs>
<clipPath id="clip0_0_41">
<rect width="1444" height="1433" fill="white"/>
</clipPath>
</defs>
</svg>
