<svg viewBox="0 0 47.37779999999999 108.51678048780488" xmlns="http://www.w3.org/2000/svg" data-name="Layer 2" id="Layer_2" style="max-height: 500px" width="47.37779999999999" height="108.51678048780488">
  <defs>
    <style>
      .cls-1 {
        fill: #969696;
      }

      .cls-2 {
        fill: #646464;
      }

      .cls-3, .cls-4 {
        fill: #f0f0f0;
      }

      .cls-4 {
        font-family: Saprona-SemiBold, Saprona;
        font-size: 66.01px;
        font-weight: 600;
      }

      .cls-5 {
        letter-spacing: -.03em;
      }

      .cls-6 {
        fill: #dcdcdc;
      }
    </style>
  </defs>
  <g data-name="Layer 2" id="Layer_2-2">
    <g>
      <g>
        <path d="M41.19,88.88c-3.15,0-5.69-2.55-5.69-5.69V20.23c0-3.14,2.55-5.69,5.69-5.69,3.15,0,5.69,2.55,5.69,5.69v62.95c0,3.15-2.55,5.69-5.69,5.69Z" class="cls-2"/>
        <path d="M23.84,98.07c-3.15,0-5.69-2.55-5.69-5.69V13.25c0-3.14,2.55-5.69,5.69-5.69,3.15,0,5.69,2.55,5.69,5.69v79.13c0,3.15-2.55,5.69-5.69,5.69Z" class="cls-1"/>
        <path d="M5.7,107.99c-3.15,0-5.69-2.55-5.69-5.69V5.69C0,2.55,2.55,0,5.7,0c3.15,0,5.69,2.55,5.69,5.69v96.6c0,3.15-2.55,5.69-5.69,5.69Z" class="cls-6"/>
        <path d="M5.7,107.99c-.38,0-.76-.04-1.14-.12-3.08-.63-5.07-3.63-4.44-6.72L18.26,12.11c.63-3.08,3.65-5.06,6.72-4.44,3.08.63,5.07,3.64,4.44,6.72L11.27,103.44c-.55,2.7-2.92,4.56-5.57,4.56Z" class="cls-3"/>
        <path d="M23.85,98.07c-.43,0-.87-.05-1.31-.15-3.06-.72-4.96-3.79-4.23-6.85L35.64,17.62c.72-3.06,3.8-4.95,6.85-4.23,3.06.72,4.96,3.79,4.23,6.85l-17.34,73.45c-.62,2.62-2.96,4.39-5.54,4.39Z" class="cls-1"/>
      </g>
    </g>
  </g>
</svg>